<svg width="40" height="40" viewBox="0 0 40 40" fill="none" xmlns="http://www.w3.org/2000/svg">
<circle cx="20" cy="20" r="20" fill="#AAAAAA"/>
<path d="M20.0231 27H15V13H20.1505C21.3681 13 22.4138 13.2803 23.2876 13.8409C24.1614 14.3968 24.8309 15.1966 25.2961 16.2403C25.7654 17.2793 26 18.5257 26 19.9795C26 21.4379 25.7633 22.6911 25.29 23.7393C24.8208 24.7875 24.1412 25.5941 23.2512 26.1592C22.3612 26.7198 21.2852 27 20.0231 27ZM16.875 25.1543H19.9199C20.8665 25.1543 21.6533 24.9538 22.2803 24.5528C22.9074 24.1472 23.3766 23.5616 23.6881 22.7959C23.9996 22.0257 24.1553 21.0869 24.1553 19.9795C24.1553 18.8812 23.9996 17.9492 23.6881 17.1836C23.3807 16.418 22.9215 15.8369 22.3107 15.4405C21.6998 15.044 20.9413 14.8457 20.0352 14.8457H16.875V25.1543Z" fill="white"/>
<circle cx="33" cy="33" r="6.5" fill="#525DF9" stroke="white"/>
<path d="M33 29L33.9443 32.0557H37L34.5279 33.9443L35.4721 37L33 35.1115L30.5279 37L31.4721 33.9443L29 32.0557H32.0557L33 29Z" fill="white"/>
</svg>
