<svg width="15" height="14" viewBox="0 0 15 14" fill="none" xmlns="http://www.w3.org/2000/svg">
<path d="M13.4186 1.58136C13.0767 1.23922 12.6706 0.967815 12.2237 0.782643C11.7768 0.597471 11.2978 0.502162 10.8141 0.502162C10.3304 0.502162 9.85135 0.597471 9.40445 0.782643C8.95756 0.967815 8.55152 1.23922 8.20954 1.58136L7.49982 2.29108L6.7901 1.58136C6.09933 0.89059 5.16245 0.50252 4.18555 0.502521C3.20865 0.502521 2.27177 0.890591 1.581 1.58136C0.890232 2.27213 0.502162 3.20901 0.502162 4.18591C0.502162 5.1628 0.890232 6.09969 1.581 6.79046L2.29072 7.50018L7.49982 12.7093L12.7089 7.50018L13.4186 6.79046C13.7608 6.44848 14.0322 6.04245 14.2174 5.59555C14.4025 5.14865 14.4978 4.66965 14.4978 4.18591C14.4978 3.70217 14.4025 3.22317 14.2174 2.77627C14.0322 2.32937 13.7608 1.92334 13.4186 1.58136V1.58136Z" stroke="#AAAAAA" stroke-linecap="round" stroke-linejoin="round"/>
</svg>
