<svg width="11" height="14" viewBox="0 0 11 14" fill="none" xmlns="http://www.w3.org/2000/svg">
<path d="M5.02306 14H0V0H5.15049C6.36812 0 7.41384 0.280274 8.28762 0.840821C9.16141 1.39681 9.83091 2.19661 10.2961 3.24023C10.7654 4.2793 11 5.52572 11 6.97949C11 8.43783 10.7633 9.69108 10.29 10.7393C9.82079 11.7874 9.14118 12.5941 8.25121 13.1592C7.36125 13.7197 6.28519 14 5.02306 14ZM1.875 12.1543H4.9199C5.8665 12.1543 6.65332 11.9538 7.28034 11.5527C7.90736 11.1471 8.37662 10.5615 8.68811 9.7959C8.9996 9.02572 9.15534 8.08691 9.15534 6.97949C9.15534 5.88119 8.9996 4.94922 8.68811 4.18359C8.38066 3.41797 7.92152 2.83691 7.31068 2.44043C6.69984 2.04395 5.94134 1.8457 5.03519 1.8457H1.875V12.1543Z" fill="white"/>
</svg>
