<svg width="14" height="14" viewBox="0 0 14 14" fill="none" xmlns="http://www.w3.org/2000/svg">
<path d="M13.6231 3.8624L12.3634 5.12366C12.3332 5.15476 12.2971 5.17948 12.2571 5.19636C12.2172 5.21324 12.1743 5.22193 12.131 5.22193C12.0876 5.22193 12.0447 5.21324 12.0048 5.19636C11.9649 5.17948 11.9287 5.15476 11.8985 5.12366L8.86004 2.11397C8.82898 2.0837 8.80429 2.04751 8.78743 2.00753C8.77057 1.96755 8.76188 1.9246 8.76188 1.8812C8.76188 1.83781 8.77057 1.79485 8.78743 1.75487C8.80429 1.71489 8.82898 1.6787 8.86004 1.64844L10.1197 0.381768C10.3676 0.137139 10.7016 0 11.0497 0C11.3977 0 11.7317 0.137139 11.9796 0.381768L13.6015 2.0057C13.7257 2.12561 13.8249 2.26902 13.8933 2.42761C13.9616 2.5862 13.9979 2.7568 13.9999 2.92953C14.0019 3.10225 13.9697 3.27366 13.905 3.4338C13.8403 3.59394 13.7445 3.73963 13.6231 3.8624ZM11.2821 5.74617L8.2437 2.704C8.21347 2.6729 8.17733 2.64818 8.1374 2.6313C8.09747 2.61442 8.05457 2.60572 8.01122 2.60572C7.96788 2.60572 7.92498 2.61442 7.88505 2.6313C7.84512 2.64818 7.80897 2.6729 7.77874 2.704L0.588134 9.89803L0.00964154 13.2271C-0.00835874 13.3313 -0.0010819 13.4384 0.0308601 13.5392C0.0628021 13.6401 0.118474 13.7318 0.19319 13.8066C0.267905 13.8814 0.359476 13.9371 0.460196 13.9691C0.560915 14.0011 0.667835 14.0084 0.771954 13.9903L4.09694 13.4057L11.2821 6.2117C11.3132 6.18143 11.3379 6.14524 11.3547 6.10526C11.3716 6.06528 11.3803 6.02233 11.3803 5.97893C11.3803 5.93554 11.3716 5.89258 11.3547 5.8526C11.3379 5.81262 11.3132 5.77643 11.2821 5.74617ZM3.71308 12.5829L1.94516 12.8915L1.09634 12.0416L1.40451 10.2715H2.41012V11.5869H3.72389L3.71308 12.5829ZM8.14098 5.06412L3.92393 9.28093C3.85034 9.34237 3.75647 9.37404 3.66076 9.36971C3.56504 9.36538 3.4744 9.32537 3.40665 9.25753C3.3389 9.1897 3.29894 9.09895 3.29461 9.00312C3.29029 8.90729 3.32192 8.8133 3.38328 8.73962L7.60033 4.5228C7.67391 4.46136 7.76779 4.4297 7.8635 4.43403C7.95922 4.43836 8.04986 4.47837 8.11761 4.54621C8.18536 4.61404 8.22532 4.70479 8.22964 4.80062C8.23397 4.89645 8.20234 4.99044 8.14098 5.06412Z" fill="white"/>
</svg>
