<svg width="16" height="15" viewBox="0 0 16 15" fill="none" xmlns="http://www.w3.org/2000/svg">
<path d="M13.9907 0H1.97395C1.45064 0.000681313 0.94895 0.20887 0.57891 0.57891C0.20887 0.94895 0.000681313 1.45064 0 1.97395V9.96967C0.000681313 10.493 0.20887 10.9947 0.57891 11.3647C0.94895 11.7348 1.45064 11.9429 1.97395 11.9436H2.81751C3.05389 11.9436 3.24649 12.1362 3.24649 12.3726V13.6256C3.24649 14.1622 3.54827 14.638 4.03391 14.8672C4.269 14.9793 4.53127 15.0217 4.78971 14.9895C5.04815 14.9573 5.29197 14.8518 5.49236 14.6854L8.61319 12.1156C8.63173 12.1007 8.64924 12.0847 8.66624 12.0683C8.70595 12.0286 8.75309 11.9972 8.80496 11.9758C8.85684 11.9544 8.91243 11.9435 8.96854 11.9436H13.9907C14.514 11.9429 15.0157 11.7348 15.3858 11.3647C15.7558 10.9947 15.964 10.493 15.9647 9.96967V1.97395C15.964 1.45064 15.7558 0.94895 15.3858 0.57891C15.0157 0.20887 14.514 0.000681313 13.9907 0ZM14.4197 9.96967C14.4197 10.2066 14.2271 10.3987 13.9907 10.3987H8.96854C8.46154 10.3974 7.97376 10.5925 7.60742 10.943L4.79146 13.2615V12.3726C4.79064 11.8493 4.58232 11.3477 4.21218 10.9777C3.84205 10.6078 3.34031 10.3997 2.81699 10.3992H1.97395C1.86022 10.399 1.75119 10.3538 1.67076 10.2734C1.59034 10.193 1.5451 10.0839 1.54497 9.97019V1.97395C1.54497 1.73706 1.73757 1.54497 1.97395 1.54497H13.9907C14.2271 1.54497 14.4197 1.73757 14.4197 1.97395V9.96967Z" fill="#AAAAAA"/>
</svg>
