<svg width="20" height="20" viewBox="0 0 20 20" fill="none" xmlns="http://www.w3.org/2000/svg">
<path d="M15.3454 7.5153C15.3638 8.4466 15.1467 9.36747 14.7143 10.1925C14.2819 11.0175 13.6481 11.7199 12.8717 12.2346C12.6617 12.3749 12.4894 12.5647 12.3701 12.7873C12.2508 13.0099 12.1881 13.2584 12.1875 13.5109V14.7346H7.45062V13.5065C7.45006 13.2546 7.38732 13.0067 7.26796 12.7848C7.14861 12.5629 6.97633 12.3739 6.76641 12.2346C5.97462 11.7085 5.3319 10.9871 4.90039 10.1401C4.46889 9.29306 4.26317 8.34903 4.30313 7.39925C4.3431 6.44947 4.62739 5.52606 5.12852 4.71826C5.62966 3.91046 6.3307 3.24559 7.1639 2.78791C7.99709 2.33023 8.93425 2.09522 9.88481 2.10558C10.8354 2.11595 11.7672 2.37134 12.5902 2.84708C13.4132 3.32281 14.0996 4.00281 14.583 4.82134C15.0664 5.63987 15.3305 6.56926 15.3497 7.51969L15.3454 7.5153ZM7.45062 16.3092H12.1875V17.8881H7.45062V16.3092Z" stroke="#525DF9" stroke-width="1.3" stroke-linecap="round" stroke-linejoin="round"/>
<rect x="9" y="11.6667" width="1.66667" height="3.33333" rx="0.25" fill="#525DF9"/>
</svg>
