<svg width="20" height="22" viewBox="0 0 20 22" fill="none" xmlns="http://www.w3.org/2000/svg">
<path d="M15.7203 9.15255C12.8869 3.05457 11.4131 0.738162 6.78399 0.835093C5.13491 0.868646 5.53009 -0.360394 4.27247 0.105622C3.01733 0.571639 4.09476 1.25389 2.8098 2.30895C-0.796543 5.27032 -0.46474 8.00926 1.20795 14.5372C1.91256 17.2873 -0.490837 17.4215 0.459836 20.0859C1.15451 22.0295 6.27448 22.8435 11.6753 20.8402C17.0774 18.8357 20.4811 14.8578 19.7865 12.9142C18.8358 10.2486 16.9146 11.72 15.7203 9.15255ZM11.09 19.1974C6.26578 20.9869 2.30153 19.9355 2.13377 19.467C1.84546 18.6593 3.69088 15.9676 9.20603 13.9208C14.7212 11.8741 17.7994 12.6334 18.1212 13.5343C18.3114 14.0675 15.9154 17.4066 11.09 19.1974ZM9.53907 14.8553C7.01762 15.7911 5.2654 16.8611 4.12956 17.8242C4.92862 18.5499 6.42484 18.7264 7.91485 18.1734C9.81247 17.4713 10.9794 15.8545 10.5183 14.5646L10.4984 14.5198C10.1865 14.6217 9.86715 14.7323 9.53907 14.8553Z" fill="#AAAAAA"/>
</svg>
